# xmcd CD database file
#
# Track frame offsets:
#	150
#	13507
#	23140
#	34540
#	45715
#	56097
#	68452
#	78355
#	91030
#	100427
#	110662
#	123522
#	133837
#	143342
#	155552
#
# Disc length: 2224 seconds
#
# Revision: 2
# Processed by: cddbd v1.5.1PL0 Copyright (c) Steve Scherf et al.
# Submitted via: CDex 1.51
#
DISCID=bc08ae0f
DTITLE=Flatt and Scruggs - Blue Ridge Cabin Home
DYEAR=1990
DGENRE=Bluegrass
TTITLE0=Blue Ridge Cabin Home
TTITLE1=Don't Let Your Deal Go Down
TTITLE2=Some Old Day
TTITLE3=I'll Never Shed Another Tear
TTITLE4=I'll Take the Blame
TTITLE5=Six White Horses
TTITLE6=A Hundred Years From Now
TTITLE7=On My Mind
TTITLE8=Shuckin' The Corn
TTITLE9=Let Those Brown Eyes Smile at Me
TTITLE10=No Mother In This World
TTITLE11=I Won't BE Hanging Around
TTITLE12=Randy Lynn Rag
TTITLE13=What's Good For You
TTITLE14=No Doubt About It
EXTD=YEAR: 1990
EXTT0=
EXTT1=
EXTT2=
EXTT3=
EXTT4=
EXTT5=
EXTT6=
EXTT7=
EXTT8=
EXTT9=
EXTT10=
EXTT11=
EXTT12=
EXTT13=
EXTT14=
PLAYORDER=
